HIERARCHY
ROOT Hips
{
	OFFSET 0.00000 0.00000 0.00000
	CHANNELS 6 Xposition Yposition Zposition Zrotation Yrotation Xrotation 
	JOINT LHipJoint
	{
		OFFSET 0 0 0
		CHANNELS 3 Zrotation Yrotation Xrotation
		JOINT LeftHip
		{
			OFFSET 1.09156 -1.61406 0.76500
			CHANNELS 3 Zrotation Yrotation Xrotation
			JOINT LeftKnee
			{
				OFFSET 2.33750 -6.42225 0.00000
				CHANNELS 3 Zrotation Yrotation Xrotation
				JOINT LeftAnkle
				{
					OFFSET 2.49247 -6.84800 0.00000
					CHANNELS 3 Zrotation Yrotation Xrotation
					JOINT LeftToe
					{
						OFFSET 0.15312 -0.42069 1.45461
						CHANNELS 3 Zrotation Yrotation Xrotation
						End Site
						{
							OFFSET 0.00000 -0.00000 0.77046
						}
					}
				}
			}
		}
	}
	JOINT RHipJoint
	{
		OFFSET 0 0 0
		CHANNELS 3 Zrotation Yrotation Xrotation
		JOINT RightHip
		{
			OFFSET -0.99883 -1.61406 0.76500
			CHANNELS 3 Zrotation Yrotation Xrotation
			JOINT RightKnee
			{
				OFFSET -2.36877 -6.50815 0.00000
				CHANNELS 3 Zrotation Yrotation Xrotation
				JOINT RightAnkle
				{
					OFFSET -2.53452 -6.96353 0.00000
					CHANNELS 3 Zrotation Yrotation Xrotation
					JOINT RightToe
					{
						OFFSET -0.13156 -0.36145 1.63237
						CHANNELS 3 Zrotation Yrotation Xrotation
						End Site
						{
							OFFSET -0.00000 -0.00000 0.84979
						}
					}
				}
			}
		}
	}
	JOINT lowerback
	{
		OFFSET 0 0 0
		CHANNELS 3 Zrotation Yrotation Xrotation
		JOINT Chest
		{
			OFFSET -0.02431 1.98242 -0.13616
			CHANNELS 3 Zrotation Yrotation Xrotation
			JOINT Chest2
			{
				OFFSET 0.03629 1.98974 -0.02954
				CHANNELS 3 Zrotation Yrotation Xrotation
				JOINT lowerneck
				{
					OFFSET 0 0 0
					CHANNELS 3 Zrotation Yrotation Xrotation
					JOINT Neck
					{
						OFFSET 0.09349 1.40783 0.22333
						CHANNELS 3 Zrotation Yrotation Xrotation
						JOINT Head
						{
							OFFSET -0.04273 1.44500 -0.06495
							CHANNELS 3 Zrotation Yrotation Xrotation
							End Site
							{
								OFFSET -0.02251 1.44600 -0.04544
							}
						}
					}
				}
				JOINT LeftCollar
				{
					OFFSET 0 0 0
					CHANNELS 3 Zrotation Yrotation Xrotation
					JOINT LeftShoulder
					{
						OFFSET 3.49137 0.85126 -0.29740
CHANNELS 3 Zrotation Xrotation Yrotation
						JOINT LeftElbow
						{
OFFSET 0 -5.060350 0.000000
CHANNELS 3 Zrotation Xrotation Yrotation
							JOINT LeftWrist
							{
OFFSET 0 -3.147800 0.000000
CHANNELS 3 Zrotation Xrotation Yrotation
								JOINT lhand
								{
									OFFSET 0 0 0
CHANNELS 3 Zrotation Xrotation Yrotation
									JOINT LFingers
									{
OFFSET 0 -0.606750 0.000000
CHANNELS 3 Zrotation Xrotation Yrotation
										End Site
										{
OFFSET 0 -0.489180 0.000000
										}
									}
								}
								JOINT LThumb
								{
OFFSET 0 0.000000 0.000000
CHANNELS 3 Zrotation Xrotation Yrotation
									End Site
									{
OFFSET 0 -0.496640 0.496640
									}
								}
							}
						}
					}
				}
				JOINT RightCollar
				{
					OFFSET 0 0 0
					CHANNELS 3 Zrotation Yrotation Xrotation
					JOINT RightShoulder
					{
						OFFSET -3.28101 0.69707 0.00747
CHANNELS 3 Zrotation Xrotation Yrotation
						JOINT RightElbow
						{
OFFSET 0 -5.122730 -0.000000
CHANNELS 3 Zrotation Xrotation Yrotation
							JOINT RightWrist
							{
OFFSET 0 -3.422000 0.000000
CHANNELS 3 Zrotation Xrotation Yrotation
								JOINT rhand
								{
									OFFSET 0 0 0
CHANNELS 3 Zrotation Xrotation Yrotation
									JOINT RFingers
									{
OFFSET 0 -0.704600 0.000000
CHANNELS 3 Zrotation Xrotation Yrotation
										End Site
										{
OFFSET 0 -0.568070 0.000000
										}
									}
								}
								JOINT RThumb
								{
OFFSET 0 0.000000 0.000000
CHANNELS 3 Zrotation Xrotation Yrotation
									End Site
									{
OFFSET 0 -0.576740 0.576740
									}
								}
							}
						}
					}
				}
			}
		}
	}
}
MOTION
Frames: 7
Frame Time: 0.008333333333333333
-30.869500 15.619800 -3.989700 92.514700 86.610200 97.427700 0.000000 0.000000 0.000000 -18.011500 -11.372500 -8.533800 3.054600 10.783000 31.551400 2.681900 0.589700 -31.241600 0.906900 6.068500 16.983300 0.000000 0.000000 0.000000 8.909300 8.156700 -8.724400 -2.621400 -10.055300 29.156100 -0.658500 -12.781200 -24.776500 -1.096100 6.652800 -18.690800 -5.864000 -0.867200 -3.789800 -1.479700 -0.892300 -1.697700 1.726400 -0.404200 0.443300 2.824300 0.111600 -12.957400 0.664000 0.224100 33.019100 -0.111100 0.922600 13.239900 -0.000000 0.000000 0.000000 0.691400 -5.842900 -0.289200 5.678100 -9.724300 0.483400 17.677000 33.083600 -42.397200 0.000000 0.000000 0.000000 -7.125000 0.000000 0.000000 -30.726000 71.671900 20.064200 -0.000000 0.000000 0.000000 2.991500 -3.437100 -28.701400 -5.143300 -8.826000 -0.397200 -32.397600 26.779200 -32.321600 0.000000 0.000000 0.000000 7.125000 0.000000 -0.000000 -0.245500 -6.865500 -0.273100
-30.856315 15.618614 -3.986174 82.545461 86.679781 87.504829 0.000000 0.000000 0.000000 -18.058445 -11.537881 -8.282065 3.043954 10.765890 31.494388 2.725889 1.175974 -31.696286 0.941854 6.181067 17.310777 0.000000 0.000000 0.000000 8.845152 7.760568 -9.100299 -2.624496 -10.060832 29.173864 -0.774838 -11.705930 -24.680530 -1.096808 6.655007 -18.697120 -5.827701 -0.708114 -3.881424 -1.494513 -0.672847 -1.633393 1.699235 -0.299055 0.544285 2.775797 0.127257 -13.088485 0.772345 0.210005 32.993627 -0.062551 0.921086 13.257607 0.000000 0.000000 0.000000 0.764332 -5.877643 0.008021 5.717969 -9.790884 0.490131 17.424851 33.086024 -42.100776 0.000000 0.000000 0.000000 -7.125000 0.000000 0.000000 -30.446143 71.347017 19.660553 0.000000 0.000000 0.000000 3.082819 -3.429275 -27.663482 -5.188764 -8.902554 -0.404223 -32.228634 25.886677 -32.337204 0.000000 0.000000 0.000000 7.125000 0.000000 0.000000 -0.148972 -6.831033 -0.165670
-30.865597 15.630584 -3.989078 87.971716 86.772271 93.227903 0.000000 0.000000 0.000000 -17.801848 -11.353312 -8.855692 3.041905 10.762532 31.483221 2.671771 0.854160 -31.271653 0.898908 6.042540 16.907815 0.000000 0.000000 0.000000 8.970312 8.184112 -9.164919 -2.613731 -10.041801 29.112253 -0.752233 -12.049455 -24.823607 -1.039333 6.483771 -18.194721 -5.795027 -0.857111 -3.969229 -1.421384 -0.867747 -1.652534 1.746407 -0.397198 0.588405 2.504666 0.118715 -12.749004 1.117098 0.149664 32.514405 0.102954 0.891234 12.978810 0.000000 0.000000 0.000000 0.688346 -6.110399 0.749769 5.667743 -9.706892 0.481637 17.586443 33.861075 -42.042810 0.000000 0.000000 0.000000 -7.125000 0.000000 0.000000 -30.149168 71.355340 19.463460 0.000000 0.000000 0.000000 2.987441 -3.497120 -26.870975 -5.204927 -8.929784 -0.406685 -32.115189 25.262329 -32.436519 0.000000 0.000000 0.000000 7.125000 0.000000 0.000000 -0.064791 -6.902224 -0.072006
-30.860984 15.633354 -3.984722 86.456862 86.844997 91.785696 0.000000 0.000000 0.000000 -17.605009 -10.862695 -9.096900 3.034785 10.751167 31.445228 2.657104 0.441600 -31.048509 0.873820 5.958950 16.665536 0.000000 0.000000 0.000000 9.057920 7.925764 -9.351942 -2.608977 -10.033433 29.085051 -0.726221 -12.037487 -24.597696 -1.103021 6.673166 -18.750676 -5.978679 -0.902233 -3.985290 -1.232598 -0.925113 -1.689519 2.040858 -0.424372 0.568715 2.519784 0.138780 -12.502931 0.794218 0.296026 32.467001 -0.005100 0.915309 12.905829 0.000000 0.000000 0.000000 0.519666 -6.038699 0.370813 5.693649 -9.750189 0.486046 17.466293 33.263413 -42.231046 0.000000 0.000000 0.000000 -7.125000 0.000000 0.000000 -30.647146 71.466261 19.875494 0.000000 0.000000 0.000000 2.749638 -3.382226 -26.351146 -5.216837 -8.949787 -0.408548 -32.174202 25.008400 -32.385456 0.000000 0.000000 0.000000 7.125000 0.000000 0.000000 -0.108432 -6.865788 -0.120619
-30.852854 15.632556 -3.981307 85.124762 86.692697 90.449455 0.000000 0.000000 0.000000 -17.732648 -10.453909 -9.180224 3.029108 10.742050 31.414793 2.659697 0.132859 -30.963995 0.924498 6.125495 17.148991 0.000000 0.000000 0.000000 8.888656 7.987190 -9.301734 -2.610961 -10.036932 29.096438 -0.724691 -12.039980 -24.588152 -1.085410 6.621509 -18.598760 -6.262574 -0.947922 -3.847241 -1.202162 -0.986927 -1.696403 2.229342 -0.451827 0.493907 2.382367 0.208960 -12.562130 0.845393 0.412677 32.463745 0.055646 0.954694 12.917638 0.000000 0.000000 0.000000 0.439484 -6.142252 1.087153 5.627881 -9.640119 0.474951 17.387987 33.714034 -41.916813 0.000000 0.000000 0.000000 -7.125000 0.000000 0.000000 -30.141650 71.185787 19.349030 0.000000 0.000000 0.000000 2.665093 -3.310899 -25.714243 -5.228735 -8.969951 -0.410410 -32.274168 24.559505 -32.295601 0.000000 0.000000 0.000000 7.125000 0.000000 0.000000 -0.183188 -6.800556 -0.203605
-30.853820 15.633802 -3.979363 84.163863 86.878943 89.554365 0.000000 0.000000 0.000000 -17.473094 -10.314385 -9.300440 3.021881 10.730338 31.375739 2.657677 0.110516 -30.945071 0.869947 5.946560 16.629553 0.000000 0.000000 0.000000 9.202655 8.814872 -9.082927 -2.618126 -10.049635 29.137609 -0.577888 -13.105070 -24.435318 -1.129527 6.749887 -18.976616 -6.268245 -1.009492 -3.868233 -0.970988 -1.071692 -1.659231 2.466241 -0.497993 0.555485 2.286492 0.275546 -12.724024 0.598526 0.620604 32.683484 0.010010 1.006636 13.046644 0.000000 0.000000 0.000000 0.173853 -6.216208 1.134767 5.660102 -9.694081 0.480390 17.799024 33.936829 -42.142266 0.000000 0.000000 0.000000 -7.125000 0.000000 0.000000 -30.092236 71.508547 19.523079 0.000000 0.000000 0.000000 2.364427 -3.431567 -25.044968 -5.190446 -8.905434 -0.404439 -32.349362 23.900220 -32.210121 0.000000 0.000000 0.000000 7.125000 0.000000 0.000000 -0.243469 -6.732405 -0.270288
-30.846039 15.630632 -3.983875 82.299770 86.642556 87.827531 0.000000 0.000000 0.000000 -17.767922 -10.487869 -9.296437 3.010158 10.711528 31.313038 2.672577 0.192742 -31.058465 1.020745 6.424156 18.021272 0.000000 0.000000 0.000000 8.829607 8.474234 -9.480783 -2.633670 -10.076996 29.226325 -0.654415 -12.594167 -24.551284 -1.142986 6.788872 -19.091344 -6.564541 -1.035496 -4.094221 -0.955961 -1.072822 -1.560646 2.642760 -0.506467 0.788716 2.323026 0.272695 -12.692537 0.411614 0.659936 32.568726 -0.065202 0.998792 12.991806 0.000000 0.000000 0.000000 0.033271 -6.208199 0.443808 5.813936 -9.951439 0.506588 17.712733 33.075263 -41.932578 0.000000 0.000000 0.000000 -7.125000 0.000000 0.000000 -29.795581 71.308861 19.193294 0.000000 0.000000 0.000000 2.222138 -3.719046 -25.947165 -5.137993 -8.817047 -0.396362 -32.291612 24.988370 -32.543865 0.000000 0.000000 0.000000 7.125000 0.000000 0.000000 -0.138130 -7.069206 -0.154029
